<?xml version="1.0" encoding="UTF-8" standalone="no"?>
<!-- Created with Inkscape (http://www.inkscape.org/) -->

<svg
   xmlns:dc="http://purl.org/dc/elements/1.1/"
   xmlns:cc="http://creativecommons.org/ns#"
   xmlns:rdf="http://www.w3.org/1999/02/22-rdf-syntax-ns#"
   xmlns:svg="http://www.w3.org/2000/svg"
   xmlns="http://www.w3.org/2000/svg"
   xmlns:sodipodi="http://sodipodi.sourceforge.net/DTD/sodipodi-0.dtd"
   xmlns:inkscape="http://www.inkscape.org/namespaces/inkscape"
   width="500"
   height="500"
   viewBox="0 0 132.29167 132.29167"
   version="1.1"
   id="svg8"
   inkscape:version="0.92.4 (5da689c313, 2019-01-14)"
   sodipodi:docname="logo-red.svg">
  <defs
     id="defs2" />
  <sodipodi:namedview
     id="base"
     pagecolor="#ffffff"
     bordercolor="#666666"
     borderopacity="1.0"
     inkscape:pageopacity="0.0"
     inkscape:pageshadow="2"
     inkscape:zoom="0.98994949"
     inkscape:cx="119.7761"
     inkscape:cy="367.03113"
     inkscape:document-units="mm"
     inkscape:current-layer="layer1"
     showgrid="false"
     units="px"
     inkscape:window-width="1920"
     inkscape:window-height="1017"
     inkscape:window-x="-8"
     inkscape:window-y="-8"
     inkscape:window-maximized="1" />
  <metadata
     id="metadata5">
    <rdf:RDF>
      <cc:Work
         rdf:about="">
        <dc:format>image/svg+xml</dc:format>
        <dc:type
           rdf:resource="http://purl.org/dc/dcmitype/StillImage" />
        <dc:title></dc:title>
      </cc:Work>
    </rdf:RDF>
  </metadata>
  <g
     inkscape:label="Layer 1"
     inkscape:groupmode="layer"
     id="layer1"
     transform="translate(0,-164.70834)">
    <path
       style="fill:#d40000;stroke-width:0.33164808"
       d="m 65.659411,290.27415 c -0.417123,-0.3708 -5.599314,-3.69538 -7.124982,-4.57094 -0.638422,-0.36639 -4.593326,-2.88971 -8.788674,-5.60736 -4.195349,-2.71766 -10.165014,-6.54963 -13.265925,-8.51549 -3.100911,-1.96586 -7.279676,-4.64136 -9.286148,-5.94553 -2.006471,-1.30419 -4.330863,-2.80615 -5.165316,-3.33769 -1.44638,-0.92134 -1.856549,-1.60028 -8.788675,-14.54771 -3.9993161,-7.4697 -8.3483729,-15.62401 -9.6645723,-18.12071 l -2.3930859,-4.53945 0.4703834,-4.10323 c 0.258708,-2.25677 0.7814615,-6.71495 1.1616763,-9.90707 0.3802122,-3.1921 0.9748035,-8.26633 1.3213136,-11.27603 0.3465126,-3.00971 0.8099179,-7.0031 1.0297972,-8.87421 l 0.3997777,-3.40202 1.6940289,-0.95435 c 0.9317153,-0.52489 2.6640992,-1.47352 3.8497421,-2.10806 1.185641,-0.63453 2.976539,-1.59795 3.979775,-2.14092 14.017076,-7.5864 19.922721,-10.71053 20.246449,-10.71053 0.215319,0 1.232584,0.71696 2.260588,1.59325 1.028007,0.87628 2.331596,1.95829 2.896874,2.40445 0.565274,0.44616 2.95314,2.4221 5.306369,4.39098 7.855172,6.57219 16.271228,13.56678 18.772902,15.60215 l 1.56003,1.26926 5.40458,-4.41252 c 2.972515,-2.42688 5.479198,-4.49379 5.570401,-4.59311 0.09125,-0.0993 1.339286,-1.14818 2.773497,-2.33077 1.434237,-1.1826 4.659336,-3.86647 7.166909,-5.96414 2.50756,-2.09767 5.749506,-4.79961 7.204324,-6.0043 l 2.645117,-2.19037 8.262803,4.44687 c 8.24118,4.43522 10.97903,5.91162 17.88062,9.64224 l 3.64813,1.97199 0.40238,3.28013 c 0.59345,4.8377 2.67407,22.60898 3.56743,30.47054 l 0.4517,3.97504 -1.33605,2.49211 c -0.73482,1.37064 -2.23329,4.20837 -3.32993,6.30604 -1.09662,2.09768 -2.32881,4.41093 -2.7382,5.14055 -0.40938,0.72963 -1.38151,2.52053 -2.16032,3.97977 -0.77878,1.45926 -1.89727,3.54864 -2.4855,4.64308 -0.58823,1.09443 -2.45818,4.60162 -4.15545,7.79374 -1.69726,3.1921 -3.17277,5.84221 -3.2789,5.88911 -0.10617,0.0469 -2.35698,1.49092 -5.00187,3.20891 -2.64491,1.71799 -6.749042,4.35687 -9.120338,5.86418 -5.709507,3.62925 -7.796515,4.96997 -12.934276,8.30914 -4.795738,3.1169 -14.976349,9.59046 -17.167163,10.91612 -0.840467,0.50856 -1.548611,0.73897 -1.742222,0.56686 z"
       id="path4529"
       inkscape:connector-curvature="0" />
  </g>
</svg>
